<?xml version="1.0" encoding="UTF-8"?>
<!DOCTYPE svg PUBLIC "-//W3C//DTD SVG 1.1//EN" "http://www.w3.org/Graphics/SVG/1.1/DTD/svg11.dtd">
<svg version="1.1" xmlns="http://www.w3.org/2000/svg" xmlns:xlink="http://www.w3.org/1999/xlink" x="0" y="0" width="76" height="76" viewBox="0, 0, 76, 76">
  <g id="ButtonSet">
    <g id="White">
      <path d="M38,54.125 C29.094,54.125 21.875,46.906 21.875,38 C21.875,29.094 29.094,21.875 38,21.875 C46.906,21.875 54.125,29.094 54.125,38 C54.125,46.906 46.906,54.125 38,54.125 z" fill="#FFFFFF"/>
      <path d="M38,21.875 C46.906,21.875 54.125,29.094 54.125,38 C54.125,46.906 46.906,54.125 38,54.125 C29.094,54.125 21.875,46.906 21.875,38 C21.875,29.094 29.094,21.875 38,21.875 z M38,22.875 C29.647,22.875 22.875,29.647 22.875,38 C22.875,46.353 29.647,53.125 38,53.125 C46.353,53.125 53.125,46.353 53.125,38 C53.125,29.647 46.353,22.875 38,22.875 z" fill="#000000"/>
    </g>
    <g id="Red">
      <path d="M38,0 C59.102,0.059 75.476,17.259 76,38 L38,38 L54.125,38 C53.676,29.118 47.12,22.023 38,21.875 L38,0 z" fill="#FF0000"/>
      <path d="M38,0 C59.102,0.059 75.476,17.259 76,38 L38,38 L54.125,38 C53.676,29.118 47.12,22.023 38,21.875 L38,0 z M39,1.028 L39,20.938 C47.647,21.371 54.237,28.603 55.034,37 L74.95,37 C74.224,17.813 58.251,1.568 39,1.028 z" fill="#000000"/>
    </g>
    <g id="Blue">
      <path d="M76,38 L76,38 C75.941,59.102 58.741,75.476 38,76 L38,54.125 L38,54.125 C46.906,54.125 54.125,46.906 54.125,38 L54.125,38 L76,38 z" fill="#0000FF"/>
      <path d="M76,38 L76,38 C75.941,59.102 58.741,75.476 38,76 L38,54.125 L38,54.125 C46.906,54.125 54.125,46.906 54.125,38 L54.125,38 L76,38 z M74.972,39 L55.074,39 C54.723,47.537 47.477,54.647 39,55.074 L39,74.95 C58.188,74.224 74.432,58.251 74.972,39 z" fill="#000000"/>
    </g>
    <g id="Green">
      <path d="M21.875,38 L21.875,38 C22.023,47.12 29.118,53.676 38,54.125 L38,76 L38,76 C17.013,76 -0,58.987 -0,38 L0,38 L21.875,38 z" fill="#00FF00"/>
      <path d="M21.875,38 L21.875,38 C22.023,47.12 29.118,53.676 38,54.125 L38,76 L38,76 C17.013,76 -0,58.987 -0,38 L0,38 L21.875,38 z M20.939,39 L1.025,39 C1.308,58.386 17.769,74.489 37,74.974 L37,55.034 C28.514,54.364 21.483,47.546 20.939,39 z" fill="#000000"/>
    </g>
    <g id="Yellow">
      <path d="M38,-0 L38,21.875 C28.88,22.023 22.323,29.118 21.875,38 L0,38 C0.059,16.898 17.259,0.524 38,-0 z" fill="#FFFF00"/>
      <path d="M38,0 L38,21.875 C28.88,22.023 22.323,29.118 21.875,38 L0,38 C0.059,16.898 17.259,0.524 38,-0 z M37,1.05 C17.813,1.776 1.568,17.749 1.028,37 L20.966,37 C21.635,28.51 28.453,21.484 37,20.938 L37,1.05 z" fill="#000000"/>
    </g>
  </g>
</svg>
